<?xml version="1.0" encoding="UTF-8"?>
<svg width="72.9mm" height="37.6mm" inkscape:version="1.0.2 (e86c870879, 2021-01-15)" sodipodi:docname="Future_plc_logo.svg" version="1.1" viewBox="0 0 72.9 37.6" xmlns="http://www.w3.org/2000/svg" xmlns:cc="http://creativecommons.org/ns#" xmlns:dc="http://purl.org/dc/elements/1.1/" xmlns:inkscape="http://www.inkscape.org/namespaces/inkscape" xmlns:rdf="http://www.w3.org/1999/02/22-rdf-syntax-ns#" xmlns:sodipodi="http://sodipodi.sourceforge.net/DTD/sodipodi-0.dtd">
 <sodipodi:namedview id="cvfa" bordercolor="#666666" borderopacity="1.0" inkscape:current-layer="g973" inkscape:cx="103.04503" inkscape:cy="91.468841" inkscape:document-rotation="0" inkscape:document-units="mm" inkscape:pageopacity="0.0" inkscape:pageshadow="2" inkscape:window-height="1014" inkscape:window-maximized="1" inkscape:window-width="1920" inkscape:window-x="0" inkscape:window-y="36" inkscape:zoom="2.8" pagecolor="#ffffff" showgrid="false"/>
 <metadata>
  <rdf:RDF>
   <cc:Work rdf:about="">
    <dc:format>image/svg+xml</dc:format>
    <dc:type rdf:resource="http://purl.org/dc/dcmitype/StillImage"/>
    <dc:title/>
   </cc:Work>
  </rdf:RDF>
 </metadata>
 <g transform="translate(-2.12 21.1)" inkscape:groupmode="layer" inkscape:label="Layer 1">
  <g transform="matrix(.35 0 0 -.353 -65.8 155)">
   <g transform="translate(236 472)" style="fill:#1a1a1a">
    <path d="m0 0h9.56l-0.02-2.6h-6.54v-3.41h6v-2.62h-6v-5.25h-3z" style="fill:#1a1a1a"/>
   </g>
   <g transform="translate(261 462)" style="fill:#1a1a1a">
    <path d="m0 0c0.538-0.575 1.26-0.862 2.16-0.862 0.874 0 1.57 0.283 2.09 0.852 0.52 0.569 0.779 1.35 0.779 2.36v8.15h3v-8.15c0-1.22-0.237-2.27-0.713-3.16-0.475-0.893-1.16-1.58-2.04-2.06-0.886-0.483-1.93-0.723-3.14-0.723-1.2 0-2.26 0.24-3.16 0.723-0.9 0.482-1.59 1.17-2.07 2.06-0.482 0.891-0.722 1.94-0.722 3.16v8.15h3v-8.15c0-0.992 0.27-1.78 0.808-2.35" style="fill:#1a1a1a"/>
   </g>
   <g transform="translate(281 472)" style="fill:#1a1a1a">
    <path d="m0 0h11.1v-2.66h-4.07v-11.2h-3v11.2h-4.05z" style="fill:#1a1a1a"/>
   </g>
   <g transform="translate(350 472)" style="fill:#1a1a1a">
    <path d="m0 0h10.1v-2.6h-7.13v-3.01h6.4v-2.6h-6.4v-3.07h7.34v-2.6h-10.3z" style="fill:#1a1a1a"/>
   </g>
   <g transform="translate(335 463)" style="fill:#1a1a1a">
    <path d="m0 0c0.81 0.396 1.43 0.974 1.85 1.73 0.424 0.759 0.635 1.67 0.635 2.74 0 1.53-0.475 2.72-1.42 3.56-0.949 0.839-2.29 1.26-4.03 1.26h-5.78v-13.9h3v11.3h2.77c0.837 0 1.48-0.194 1.93-0.584 0.449-0.389 0.675-0.968 0.675-1.73 0-0.78-0.226-1.37-0.675-1.77s-1.09-0.604-1.93-0.604h-1.07l1.62-3.1 1.85-3.48h3.4z" style="fill:#1a1a1a"/>
   </g>
   <g transform="translate(307 462)" style="fill:#1a1a1a">
    <path d="m0 0c0.539-0.575 1.26-0.862 2.16-0.862 0.875 0 1.57 0.283 2.09 0.852s0.778 1.35 0.778 2.36v8.15h3v-8.15c0-1.22-0.237-2.27-0.713-3.16-0.475-0.893-1.16-1.58-2.04-2.06-0.887-0.483-1.93-0.723-3.14-0.723-1.2 0-2.26 0.24-3.15 0.723-0.901 0.482-1.59 1.17-2.07 2.06-0.483 0.891-0.723 1.94-0.723 3.16v8.15h3v-8.15c0-0.992 0.27-1.78 0.808-2.35" style="fill:#1a1a1a"/>
   </g>
   <g transform="translate(232 500)">
    <path d="m0 0v-9.92h-9.92v-3.93h13.9v13.8z" style="fill:#aa1124"/>
   </g>
   <g transform="translate(222 444)">
    <path d="m0 0v-3.93h9.92v-9.92h3.93v13.9z" style="fill:#aa1124"/>
   </g>
   <g transform="translate(360 444)">
    <path d="m0 0v-13.9h3.93v9.92h9.92v3.93z" style="fill:#aa1124"/>
   </g>
   <g transform="translate(360 500)">
    <path d="m0 0v-13.8h13.8v3.93h-9.92v9.92z" style="fill:#aa1124"/>
   </g>
   <g transform="translate(198 395)" style="fill:#1a1a1a">
    <path d="m0 0c0.558 0 1.07 0.098 1.53 0.293 0.465 0.196 0.857 0.478 1.18 0.848l-0.818 0.777c-0.494-0.537-1.1-0.808-1.82-0.808-0.467 0-0.886 0.103-1.26 0.308-0.37 0.203-0.659 0.488-0.867 0.852-0.208 0.362-0.312 0.775-0.312 1.24 0 0.463 0.104 0.875 0.312 1.24 0.208 0.364 0.497 0.648 0.867 0.852 0.37 0.205 0.789 0.307 1.26 0.307 0.721 0 1.33-0.266 1.82-0.799l0.818 0.77c-0.318 0.37-0.709 0.652-1.17 0.847-0.462 0.196-0.971 0.293-1.53 0.293-0.688 0-1.31-0.152-1.86-0.454-0.555-0.301-0.992-0.718-1.31-1.25-0.318-0.532-0.477-1.13-0.477-1.8 0-0.666 0.157-1.27 0.472-1.8 0.314-0.534 0.75-0.95 1.3-1.25 0.555-0.3 1.18-0.452 1.86-0.452m5.95 0.029c0.533 0 1.01 0.114 1.43 0.341s0.752 0.545 0.989 0.951c0.236 0.404 0.355 0.864 0.355 1.38 0 0.513-0.119 0.969-0.355 1.37-0.237 0.404-0.567 0.717-0.989 0.944-0.422 0.228-0.899 0.341-1.43 0.341-0.525 0-0.999-0.113-1.42-0.341-0.422-0.227-0.752-0.54-0.989-0.944-0.236-0.403-0.355-0.859-0.355-1.37 0-0.514 0.119-0.974 0.355-1.38 0.237-0.406 0.567-0.724 0.989-0.951s0.896-0.341 1.42-0.341m0 1.04c-0.447 0-0.816 0.15-1.1 0.45-0.289 0.297-0.434 0.689-0.434 1.18 0 0.486 0.145 0.88 0.434 1.18s0.658 0.446 1.1 0.446c0.448 0 0.818-0.148 1.11-0.446 0.292-0.298 0.437-0.692 0.437-1.18 0-0.489-0.145-0.881-0.437-1.18-0.293-0.3-0.663-0.45-1.11-0.45m6.9 4.28c-0.382 0-0.726-0.061-1.03-0.185-0.305-0.122-0.559-0.305-0.759-0.544v0.671h-1.16v-5.2h1.22v2.63c0 0.507 0.13 0.895 0.389 1.16 0.26 0.271 0.614 0.406 1.06 0.406 0.396 0 0.701-0.117 0.915-0.347 0.215-0.229 0.322-0.573 0.322-1.03v-2.82h1.22v2.98c0 0.753-0.198 1.32-0.594 1.7s-0.922 0.574-1.58 0.574m6.67 0c-0.384 0-0.728-0.061-1.03-0.185-0.305-0.122-0.558-0.305-0.759-0.544v0.671h-1.16v-5.2h1.22v2.63c0 0.507 0.13 0.895 0.391 1.16 0.259 0.271 0.613 0.406 1.06 0.406 0.396 0 0.702-0.117 0.917-0.347 0.214-0.229 0.321-0.573 0.321-1.03v-2.82h1.22v2.98c0 0.753-0.199 1.32-0.595 1.7s-0.922 0.574-1.58 0.574m8.66-2.69c0 0.534-0.112 1-0.336 1.41-0.224 0.408-0.535 0.721-0.935 0.946-0.399 0.223-0.852 0.335-1.36 0.335-0.513 0-0.974-0.113-1.38-0.341-0.41-0.227-0.729-0.543-0.959-0.949-0.232-0.406-0.347-0.861-0.347-1.37 0-0.514 0.119-0.974 0.356-1.38 0.237-0.406 0.573-0.724 1.01-0.951s0.938-0.341 1.51-0.341c0.448 0 0.85 0.073 1.21 0.216 0.357 0.142 0.652 0.352 0.887 0.632l-0.653 0.749c-0.37-0.376-0.841-0.564-1.41-0.564-0.448 0-0.823 0.111-1.12 0.336-0.302 0.223-0.488 0.527-0.56 0.912h4.08c0.012 0.155 0.019 0.274 0.019 0.358m-2.63 1.72c0.396 0 0.727-0.117 0.993-0.351s0.425-0.538 0.477-0.915h-2.95c0.057 0.384 0.222 0.69 0.492 0.92 0.268 0.23 0.598 0.346 0.988 0.346m6.18-4.35c0.506 0 0.952 0.105 1.34 0.317 0.386 0.21 0.679 0.513 0.881 0.901l-0.935 0.546c-0.149-0.242-0.336-0.42-0.56-0.542-0.224-0.118-0.469-0.18-0.735-0.18-0.462 0-0.84 0.148-1.13 0.444-0.296 0.295-0.444 0.69-0.444 1.18 0 0.492 0.149 0.888 0.448 1.18 0.298 0.296 0.675 0.442 1.13 0.442 0.266 0 0.511-0.059 0.735-0.178 0.224-0.122 0.411-0.301 0.56-0.541l0.935 0.546c-0.195 0.388-0.485 0.687-0.872 0.896-0.386 0.206-0.836 0.31-1.35 0.31-0.546 0-1.03-0.113-1.46-0.341-0.425-0.227-0.758-0.54-0.997-0.944-0.24-0.403-0.361-0.859-0.361-1.37 0-0.514 0.121-0.974 0.361-1.38 0.239-0.406 0.574-0.724 1-0.951 0.428-0.227 0.912-0.341 1.45-0.341m6.12 1.22c-0.181-0.142-0.409-0.215-0.681-0.215-0.234 0-0.413 0.068-0.536 0.201-0.123 0.132-0.185 0.326-0.185 0.578v2.48h1.39v0.973h-1.39v1.19h-1.22v-1.19h-0.857v-0.973h0.857v-2.5c0-0.572 0.156-1.01 0.467-1.3 0.313-0.3 0.754-0.449 1.32-0.449 0.228 0 0.443 0.031 0.648 0.088 0.205 0.058 0.378 0.146 0.521 0.264zm3.51-1.22c0.532 0 1.01 0.114 1.43 0.341 0.422 0.227 0.752 0.545 0.989 0.951 0.237 0.404 0.355 0.864 0.355 1.38 0 0.513-0.118 0.969-0.355 1.37-0.237 0.404-0.567 0.717-0.989 0.944-0.421 0.228-0.899 0.341-1.43 0.341-0.526 0-1-0.113-1.42-0.341-0.422-0.227-0.751-0.54-0.988-0.944-0.237-0.403-0.356-0.859-0.356-1.37 0-0.514 0.119-0.974 0.356-1.38 0.237-0.406 0.566-0.724 0.988-0.951s0.896-0.341 1.42-0.341m0 1.04c-0.448 0-0.816 0.15-1.1 0.45-0.289 0.297-0.433 0.689-0.433 1.18 0 0.486 0.144 0.88 0.433 1.18s0.657 0.446 1.1 0.446 0.818-0.148 1.11-0.446 0.439-0.692 0.439-1.18c0-0.489-0.147-0.881-0.439-1.18-0.292-0.3-0.662-0.45-1.11-0.45m5.1 3.47v0.76h-1.16v-5.2h1.22v2.52c0 0.519 0.134 0.918 0.4 1.19 0.266 0.275 0.636 0.412 1.11 0.412 0.085 0 0.178-9e-3 0.282-0.028v1.16c-0.882 0-1.5-0.271-1.85-0.818m4.51-4.51c0.727 0 1.3 0.146 1.72 0.438 0.422 0.293 0.633 0.684 0.633 1.17 0 0.37-0.095 0.656-0.287 0.857-0.192 0.202-0.421 0.346-0.686 0.43-0.267 0.083-0.608 0.157-1.02 0.223-0.415 0.072-0.722 0.149-0.919 0.229-0.199 0.081-0.298 0.22-0.298 0.414 0 0.176 0.093 0.317 0.278 0.423 0.185 0.107 0.455 0.161 0.813 0.161 0.552 0 1.05-0.13 1.49-0.39l0.468 0.926c-0.228 0.137-0.519 0.245-0.877 0.327-0.357 0.08-0.714 0.12-1.07 0.12-0.702 0-1.26-0.148-1.67-0.442-0.412-0.295-0.618-0.691-0.618-1.18 0-0.377 0.099-0.67 0.297-0.882 0.198-0.21 0.432-0.359 0.701-0.442 0.27-0.085 0.619-0.161 1.05-0.224 0.409-0.066 0.707-0.135 0.892-0.206s0.277-0.198 0.277-0.379c0-0.384-0.364-0.576-1.09-0.576-0.318 0-0.641 0.048-0.969 0.141-0.328 0.095-0.608 0.221-0.843 0.376l-0.467-0.924c0.241-0.169 0.562-0.309 0.965-0.419 0.402-0.111 0.815-0.167 1.24-0.167m3.8 0c0.221 0 0.41 0.077 0.565 0.229 0.156 0.153 0.234 0.346 0.234 0.579 0 0.24-0.077 0.437-0.229 0.586-0.152 0.15-0.342 0.223-0.57 0.223-0.227 0-0.417-0.073-0.57-0.223-0.152-0.149-0.229-0.346-0.229-0.586 0-0.233 0.078-0.426 0.235-0.579 0.156-0.152 0.344-0.229 0.564-0.229m7.95-0.029c0.558 0 1.07 0.098 1.53 0.293 0.464 0.196 0.855 0.478 1.17 0.848l-0.818 0.777c-0.493-0.537-1.1-0.808-1.82-0.808-0.467 0-0.886 0.103-1.26 0.308-0.37 0.203-0.658 0.488-0.866 0.852-0.208 0.362-0.311 0.775-0.311 1.24 0 0.463 0.103 0.875 0.311 1.24 0.208 0.364 0.496 0.648 0.866 0.852 0.371 0.205 0.79 0.307 1.26 0.307 0.721 0 1.33-0.266 1.82-0.799l0.818 0.77c-0.318 0.37-0.707 0.652-1.17 0.847-0.46 0.196-0.97 0.293-1.53 0.293-0.689 0-1.31-0.152-1.86-0.454-0.555-0.301-0.992-0.718-1.31-1.25-0.318-0.532-0.477-1.13-0.477-1.8 0-0.666 0.157-1.27 0.472-1.8 0.315-0.534 0.749-0.95 1.3-1.25 0.555-0.3 1.18-0.452 1.86-0.452m4.97 4.54v0.76h-1.16v-5.2h1.22v2.52c0 0.519 0.133 0.918 0.399 1.19 0.266 0.275 0.637 0.412 1.11 0.412 0.085 0 0.179-9e-3 0.284-0.028v1.16c-0.884 0-1.5-0.271-1.85-0.818m7.72-1.87c0 0.534-0.112 1-0.335 1.41-0.225 0.408-0.536 0.721-0.935 0.946-0.4 0.223-0.852 0.335-1.36 0.335-0.513 0-0.973-0.113-1.38-0.341-0.408-0.227-0.729-0.543-0.959-0.949s-0.345-0.861-0.345-1.37c0-0.514 0.117-0.974 0.355-1.38 0.237-0.406 0.572-0.724 1.01-0.951 0.434-0.227 0.937-0.341 1.51-0.341 0.448 0 0.851 0.073 1.21 0.216 0.357 0.142 0.653 0.352 0.886 0.632l-0.653 0.749c-0.37-0.376-0.841-0.564-1.41-0.564-0.448 0-0.824 0.111-1.12 0.336-0.303 0.223-0.489 0.527-0.56 0.912h4.08c0.013 0.155 0.019 0.274 0.019 0.358m-2.63 1.72c0.396 0 0.727-0.117 0.993-0.351s0.425-0.538 0.477-0.915h-2.95c0.059 0.384 0.222 0.69 0.492 0.92s0.599 0.346 0.988 0.346m5.64 0.973c-0.428 0-0.835-0.055-1.22-0.164-0.384-0.11-0.711-0.271-0.984-0.477l0.477-0.887c0.194 0.162 0.434 0.288 0.716 0.379 0.283 0.092 0.569 0.138 0.862 0.138 0.428 0 0.751-0.098 0.969-0.292 0.218-0.197 0.326-0.474 0.326-0.839v-0.079h-1.34c-0.747 0-1.29-0.141-1.64-0.423-0.348-0.282-0.522-0.657-0.522-1.12 0-0.297 0.079-0.566 0.238-0.803s0.385-0.422 0.677-0.555c0.293-0.133 0.633-0.2 1.02-0.2s0.723 0.06 0.998 0.182c0.276 0.118 0.489 0.292 0.639 0.519v-0.632h1.15v3.05c0 0.74-0.203 1.3-0.608 1.66-0.406 0.366-0.992 0.549-1.76 0.549m-0.166-4.44c-0.311 0-0.555 0.064-0.73 0.194-0.176 0.131-0.264 0.306-0.264 0.526 0 0.461 0.351 0.692 1.05 0.692h1.26v-0.604c-0.097-0.258-0.264-0.459-0.501-0.599-0.238-0.14-0.509-0.209-0.814-0.209m6.88 0.331c-0.182-0.142-0.41-0.215-0.681-0.215-0.235 0-0.413 0.068-0.536 0.201-0.124 0.132-0.185 0.326-0.185 0.578v2.48h1.39v0.973h-1.39v1.19h-1.22v-1.19h-0.857v-0.973h0.857v-2.5c0-0.572 0.156-1.01 0.467-1.3 0.312-0.3 0.754-0.449 1.32-0.449 0.227 0 0.443 0.031 0.648 0.088 0.204 0.058 0.377 0.146 0.521 0.264zm3.51-1.22c0.532 0 1.01 0.114 1.43 0.341s0.752 0.545 0.989 0.951c0.237 0.404 0.355 0.864 0.355 1.38 0 0.513-0.118 0.969-0.355 1.37-0.237 0.404-0.567 0.717-0.989 0.944-0.422 0.228-0.899 0.341-1.43 0.341-0.526 0-1-0.113-1.42-0.341-0.422-0.227-0.752-0.54-0.988-0.944-0.237-0.403-0.356-0.859-0.356-1.37 0-0.514 0.119-0.974 0.356-1.38 0.236-0.406 0.566-0.724 0.988-0.951s0.896-0.341 1.42-0.341m0 1.04c-0.448 0-0.816 0.15-1.1 0.45-0.29 0.297-0.434 0.689-0.434 1.18 0 0.486 0.144 0.88 0.434 1.18 0.289 0.298 0.657 0.446 1.1 0.446 0.447 0 0.818-0.148 1.11-0.446s0.439-0.692 0.439-1.18c0-0.489-0.147-0.881-0.439-1.18-0.292-0.3-0.663-0.45-1.11-0.45m5.1 3.47v0.76h-1.16v-5.2h1.22v2.52c0 0.519 0.133 0.918 0.4 1.19 0.266 0.275 0.636 0.412 1.11 0.412 0.085 0 0.178-9e-3 0.282-0.028v1.16c-0.882 0-1.5-0.271-1.85-0.818m4.51-4.51c0.727 0 1.3 0.146 1.72 0.438 0.422 0.293 0.633 0.684 0.633 1.17 0 0.37-0.096 0.656-0.287 0.857-0.192 0.202-0.421 0.346-0.688 0.43-0.266 0.083-0.607 0.157-1.02 0.223-0.415 0.072-0.722 0.149-0.92 0.229-0.198 0.081-0.297 0.22-0.297 0.414 0 0.176 0.092 0.317 0.277 0.423 0.185 0.107 0.456 0.161 0.814 0.161 0.552 0 1.05-0.13 1.49-0.39l0.467 0.926c-0.228 0.137-0.52 0.245-0.876 0.327-0.358 0.08-0.714 0.12-1.07 0.12-0.702 0-1.26-0.148-1.67-0.442-0.412-0.295-0.618-0.691-0.618-1.18 0-0.377 0.099-0.67 0.296-0.882 0.199-0.21 0.433-0.359 0.702-0.442 0.27-0.085 0.619-0.161 1.05-0.224 0.409-0.066 0.707-0.135 0.892-0.206s0.277-0.198 0.277-0.379c0-0.384-0.364-0.576-1.09-0.576-0.318 0-0.642 0.048-0.969 0.141-0.328 0.095-0.609 0.221-0.843 0.376l-0.467-0.924c0.24-0.169 0.562-0.309 0.964-0.419 0.402-0.111 0.815-0.167 1.24-0.167m3.8 0c0.221 0 0.41 0.077 0.565 0.229 0.157 0.153 0.234 0.346 0.234 0.579 0 0.24-0.076 0.437-0.229 0.586-0.153 0.15-0.343 0.223-0.57 0.223s-0.417-0.073-0.57-0.223c-0.152-0.149-0.229-0.346-0.229-0.586 0-0.233 0.078-0.426 0.234-0.579 0.157-0.152 0.344-0.229 0.565-0.229m6.06 1.13v1.88h3.29v1.04h-3.29v1.77h3.71v1.06h-4.98v-6.82h5.11v1.06zm9.73-1.06-2.04 2.66 1.95 2.54h-1.32l-1.28-1.7-1.28 1.7h-1.35l1.94-2.56-2.03-2.64h1.34l1.34 1.8 1.34-1.8zm3.78 5.26c-0.358 0-0.684-0.061-0.978-0.185-0.296-0.122-0.545-0.307-0.746-0.554v0.681h-1.16v-7.09h1.22v2.52c0.408-0.467 0.965-0.701 1.66-0.701 0.507 0 0.959 0.111 1.36 0.331 0.399 0.222 0.712 0.535 0.939 0.94 0.227 0.407 0.342 0.873 0.342 1.4 0 0.524-0.115 0.989-0.342 1.39-0.227 0.403-0.54 0.715-0.939 0.935-0.4 0.221-0.852 0.331-1.36 0.331m-0.135-4.28c-0.294 0-0.556 0.067-0.79 0.199-0.234 0.134-0.419 0.324-0.555 0.571-0.137 0.247-0.203 0.533-0.203 0.858s0.066 0.61 0.203 0.856c0.136 0.246 0.321 0.437 0.555 0.57 0.234 0.132 0.496 0.198 0.79 0.198 0.447 0 0.815-0.148 1.1-0.446s0.434-0.692 0.434-1.18c0-0.489-0.145-0.881-0.434-1.18-0.289-0.3-0.657-0.45-1.1-0.45m8.82 1.6c0 0.534-0.112 1-0.337 1.41-0.223 0.408-0.534 0.721-0.934 0.946-0.399 0.223-0.852 0.335-1.36 0.335-0.514 0-0.973-0.113-1.38-0.341-0.409-0.227-0.729-0.543-0.96-0.949-0.23-0.406-0.346-0.861-0.346-1.37 0-0.514 0.12-0.974 0.356-1.38 0.236-0.406 0.573-0.724 1.01-0.951s0.938-0.341 1.51-0.341c0.448 0 0.851 0.073 1.21 0.216 0.357 0.142 0.652 0.352 0.887 0.632l-0.653 0.749c-0.37-0.376-0.841-0.564-1.41-0.564-0.448 0-0.824 0.111-1.12 0.336-0.302 0.223-0.487 0.527-0.561 0.912h4.08c0.013 0.155 0.02 0.274 0.02 0.358m-2.63 1.72c0.396 0 0.726-0.117 0.993-0.351 0.266-0.234 0.425-0.538 0.478-0.915h-2.95c0.059 0.384 0.224 0.69 0.492 0.92 0.269 0.23 0.598 0.346 0.989 0.346m4.96 0.155v0.76h-1.16v-5.2h1.22v2.52c0 0.519 0.133 0.918 0.399 1.19 0.267 0.275 0.637 0.412 1.11 0.412 0.085 0 0.179-9e-3 0.283-0.028v1.16c-0.883 0-1.5-0.271-1.85-0.818m2.88-4.44h1.22v5.2h-1.22zm0.614 6.06c0.226 0 0.414 0.074 0.559 0.219 0.147 0.146 0.22 0.327 0.22 0.542 0 0.201-0.075 0.367-0.224 0.5s-0.334 0.2-0.555 0.2-0.406-0.07-0.555-0.21c-0.149-0.139-0.223-0.313-0.223-0.519 0-0.21 0.074-0.383 0.223-0.521 0.149-0.14 0.334-0.211 0.555-0.211m7.09-3.49c0 0.534-0.111 1-0.337 1.41-0.224 0.408-0.535 0.721-0.935 0.946-0.399 0.223-0.852 0.335-1.36 0.335-0.513 0-0.974-0.113-1.38-0.341-0.411-0.227-0.73-0.543-0.962-0.949-0.23-0.406-0.345-0.861-0.345-1.37 0-0.514 0.119-0.974 0.356-1.38 0.236-0.406 0.574-0.724 1.01-0.951 0.436-0.227 0.939-0.341 1.51-0.341 0.448 0 0.85 0.073 1.21 0.216 0.356 0.142 0.651 0.352 0.885 0.632l-0.651 0.749c-0.371-0.376-0.843-0.564-1.41-0.564-0.449 0-0.823 0.111-1.12 0.336-0.302 0.223-0.489 0.527-0.56 0.912h4.08c0.013 0.155 0.02 0.274 0.02 0.358m-2.63 1.72c0.396 0 0.727-0.117 0.994-0.351 0.266-0.234 0.425-0.538 0.477-0.915h-2.95c0.059 0.384 0.223 0.69 0.492 0.92 0.27 0.23 0.599 0.346 0.989 0.346m6.75 0.973c-0.385 0-0.729-0.061-1.03-0.185-0.307-0.122-0.56-0.305-0.761-0.544v0.671h-1.16v-5.2h1.22v2.63c0 0.507 0.131 0.895 0.39 1.16 0.26 0.271 0.614 0.406 1.06 0.406 0.395 0 0.699-0.117 0.914-0.347 0.215-0.229 0.321-0.573 0.321-1.03v-2.82h1.22v2.98c0 0.753-0.198 1.32-0.595 1.7-0.396 0.383-0.922 0.574-1.58 0.574m6.15-5.33c0.506 0 0.952 0.105 1.34 0.317 0.386 0.21 0.68 0.513 0.881 0.901l-0.935 0.546c-0.148-0.242-0.335-0.42-0.56-0.542-0.223-0.118-0.469-0.18-0.736-0.18-0.46 0-0.838 0.148-1.13 0.444-0.296 0.295-0.444 0.69-0.444 1.18 0 0.492 0.149 0.888 0.448 1.18 0.3 0.296 0.677 0.442 1.13 0.442 0.267 0 0.513-0.059 0.736-0.178 0.225-0.122 0.412-0.301 0.56-0.541l0.935 0.546c-0.194 0.388-0.485 0.687-0.871 0.896-0.387 0.206-0.836 0.31-1.35 0.31-0.545 0-1.03-0.113-1.46-0.341-0.426-0.227-0.759-0.54-0.999-0.944-0.241-0.403-0.36-0.859-0.36-1.37 0-0.514 0.119-0.974 0.36-1.38 0.24-0.406 0.574-0.724 1-0.951 0.427-0.227 0.91-0.341 1.45-0.341m8.08 2.64c0 0.534-0.111 1-0.335 1.41-0.224 0.408-0.536 0.721-0.935 0.946-0.399 0.223-0.852 0.335-1.36 0.335-0.513 0-0.974-0.113-1.38-0.341-0.408-0.227-0.727-0.543-0.959-0.949-0.23-0.406-0.346-0.861-0.346-1.37 0-0.514 0.118-0.974 0.355-1.38 0.237-0.406 0.573-0.724 1.01-0.951s0.938-0.341 1.51-0.341c0.448 0 0.85 0.073 1.21 0.216 0.358 0.142 0.652 0.352 0.887 0.632l-0.654 0.749c-0.37-0.376-0.84-0.564-1.41-0.564-0.448 0-0.823 0.111-1.12 0.336-0.302 0.223-0.488 0.527-0.561 0.912h4.08c0.014 0.155 0.019 0.274 0.019 0.358m-2.63 1.72c0.396 0 0.726-0.117 0.994-0.351 0.265-0.234 0.424-0.538 0.476-0.915h-2.95c0.059 0.384 0.223 0.69 0.492 0.92s0.599 0.346 0.989 0.346m14.1-4.28-0.011 6.82h-1.04l-2.66-4.52-2.71 4.52h-1.04v-6.82h1.21v4.46l2.24-3.68h0.565l2.24 3.74 0.01-4.52zm3.71 5.26c-0.429 0-0.835-0.055-1.22-0.164-0.384-0.11-0.712-0.271-0.984-0.477l0.476-0.887c0.195 0.162 0.434 0.288 0.716 0.379 0.282 0.092 0.57 0.138 0.862 0.138 0.43 0 0.752-0.098 0.97-0.292 0.216-0.197 0.326-0.474 0.326-0.839v-0.079h-1.34c-0.747 0-1.29-0.141-1.64-0.423-0.347-0.282-0.521-0.657-0.521-1.12 0-0.297 0.08-0.566 0.239-0.803s0.385-0.422 0.677-0.555 0.633-0.2 1.02-0.2c0.389 0 0.721 0.06 0.998 0.182 0.275 0.118 0.488 0.292 0.637 0.519v-0.632h1.15v3.05c0 0.74-0.202 1.3-0.609 1.66-0.405 0.366-0.992 0.549-1.76 0.549m-0.166-4.44c-0.312 0-0.555 0.064-0.731 0.194-0.175 0.131-0.263 0.306-0.263 0.526 0 0.461 0.351 0.692 1.05 0.692h1.26v-0.604c-0.097-0.258-0.266-0.459-0.502-0.599-0.237-0.14-0.507-0.209-0.813-0.209m8.01-0.818h1.48l-2.38 3.02 2.17 2.18h-1.46l-2.52-2.34v4.36h-1.22v-7.23h1.22v1.37l0.906 0.857zm6.94 2.57c0 0.534-0.112 1-0.337 1.41-0.224 0.408-0.535 0.721-0.935 0.946-0.399 0.223-0.852 0.335-1.36 0.335-0.513 0-0.973-0.113-1.38-0.341-0.41-0.227-0.73-0.543-0.961-0.949-0.229-0.406-0.345-0.861-0.345-1.37 0-0.514 0.12-0.974 0.356-1.38 0.237-0.406 0.573-0.724 1.01-0.951 0.436-0.227 0.939-0.341 1.51-0.341 0.448 0 0.85 0.073 1.21 0.216 0.357 0.142 0.652 0.352 0.886 0.632l-0.652 0.749c-0.37-0.376-0.842-0.564-1.41-0.564-0.448 0-0.822 0.111-1.12 0.336-0.301 0.223-0.488 0.527-0.559 0.912h4.08c0.013 0.155 0.02 0.274 0.02 0.358m-2.63 1.72c0.396 0 0.727-0.117 0.994-0.351 0.266-0.234 0.424-0.538 0.478-0.915h-2.95c0.059 0.384 0.223 0.69 0.492 0.92 0.27 0.23 0.599 0.346 0.989 0.346m4.96 0.155v0.76h-1.16v-5.2h1.22v2.52c0 0.519 0.133 0.918 0.399 1.19 0.266 0.275 0.637 0.412 1.11 0.412 0.085 0 0.18-9e-3 0.284-0.028v1.16c-0.884 0-1.5-0.271-1.85-0.818m4.51-4.51c0.727 0 1.3 0.146 1.72 0.438 0.422 0.293 0.633 0.684 0.633 1.17 0 0.37-0.096 0.656-0.288 0.857-0.19 0.202-0.42 0.346-0.686 0.43-0.266 0.083-0.607 0.157-1.02 0.223-0.417 0.072-0.723 0.149-0.921 0.229-0.197 0.081-0.297 0.22-0.297 0.414 0 0.176 0.093 0.317 0.278 0.423 0.185 0.107 0.456 0.161 0.813 0.161 0.551 0 1.05-0.13 1.49-0.39l0.467 0.926c-0.227 0.137-0.519 0.245-0.875 0.327-0.358 0.08-0.716 0.12-1.07 0.12-0.7 0-1.26-0.148-1.67-0.442-0.413-0.295-0.619-0.691-0.619-1.18 0-0.377 0.099-0.67 0.297-0.882 0.198-0.21 0.432-0.359 0.701-0.442 0.269-0.085 0.618-0.161 1.05-0.224 0.408-0.066 0.705-0.135 0.891-0.206 0.185-0.071 0.277-0.198 0.277-0.379 0-0.384-0.364-0.576-1.09-0.576-0.317 0-0.641 0.048-0.97 0.141-0.327 0.095-0.608 0.221-0.841 0.376l-0.468-0.924c0.24-0.169 0.561-0.309 0.964-0.419 0.403-0.111 0.815-0.167 1.24-0.167m3.8 0c0.22 0 0.408 0.077 0.564 0.229 0.155 0.153 0.233 0.346 0.233 0.579 0 0.24-0.075 0.437-0.226 0.586-0.155 0.15-0.345 0.223-0.571 0.223-0.227 0-0.417-0.073-0.57-0.223-0.154-0.149-0.229-0.346-0.229-0.586 0-0.233 0.078-0.426 0.233-0.579 0.156-0.152 0.344-0.229 0.566-0.229" style="fill:#1a1a1a"/>
   </g>
  </g>
 </g>
</svg>
