<?xml version="1.0" encoding="utf-8"?>
<!-- Generator: Adobe Illustrator 24.2.3, SVG Export Plug-In . SVG Version: 6.00 Build 0)  -->
<svg version="1.1" id="Artwork" xmlns="http://www.w3.org/2000/svg" xmlns:xlink="http://www.w3.org/1999/xlink" x="0px" y="0px"
	 viewBox="0 0 260 72" style="enable-background:new 0 0 260 72;" xml:space="preserve">
<style type="text/css">
	.st0{fill:#00B852;}
	.st1{fill:#50575C;}
</style>
<g>
	<g>
		<g>
			<polygon class="st0" points="164.9,0 189.6,36 164.9,72 			"/>
		</g>
		<path class="st1" d="M56.6,56.8V72H0V0h18.7v56.8H56.6z M99.8,56.8V42h33.5v-0.4V28.7v-0.4H99.8V15.2l38,0V0H81.2v72h56.6V56.8
			H99.8z M183.5,0h-18.7l18.7,27.1V0z M164.9,72h18.7V44.9L164.9,72z M235,72l-24.7-36L235,0h-20.7l-24.7,36l24.7,36H235z"/>
	</g>
	<path class="st1" d="M249.7,0.9h-2.9v7.5h-1V0.9h-2.9V0h6.8V0.9z M260,8.4h-1V1.1l-2.9,6.4h-1l-2.9-6.3v7.3h-1V0h1.5l2.9,6.3
		l2.9-6.3h1.5V8.4z"/>
</g>
</svg>
