<?xml version="1.0" encoding="utf-8"?>
<!-- Generator: Adobe Illustrator 13.0.1, SVG Export Plug-In . SVG Version: 6.00 Build 14948)  -->
<!DOCTYPE svg PUBLIC "-//W3C//DTD SVG 1.1 Tiny//EN" "http://www.w3.org/Graphics/SVG/1.1/DTD/svg11-tiny.dtd">
<svg version="1.1" baseProfile="tiny" id="Layer_1" xmlns="http://www.w3.org/2000/svg" xmlns:xlink="http://www.w3.org/1999/xlink"
	 x="0px" y="0px" width="436.868px" height="48.818px" viewBox="0 0 436.868 48.818" xml:space="preserve">
<path fill="#FA4A5C" d="M25.374,16.292v24.126h-3.862V24.031c-1.309,1.454-2.67,2.652-3.788,4.021
	c-1.482,1.815-2.675,3.86-3.148,7.44h-3.778c-0.474-3.58-1.666-5.625-3.147-7.44c-1.119-1.369-2.48-2.567-3.789-4.021v12.226
	c0,1.644,0.805,2.108,0.809,4.162H0V16.292h3.861h0.033c0.307,1.629,0.882,2.802,1.666,3.9c0.829,1.16,1.926,2.226,3.135,3.457
	c1.363,1.367,2.843,3.018,3.992,5.25c1.147-2.232,2.627-3.883,3.991-5.25c1.206-1.231,2.306-2.297,3.135-3.457
	c0.784-1.098,1.359-2.271,1.665-3.9h0.033H25.374z M41.753,37.743c5.673,0,7.496-4.759,7.496-9.172c0-4.411-1.823-9.094-7.496-9.094
	c-5.672,0-7.495,4.683-7.495,9.094C34.258,32.984,36.081,37.743,41.753,37.743 M41.753,15.898c6.962,0,11.641,5.094,11.641,12.672
	c0,7.58-4.678,12.672-11.641,12.672c-6.961,0-11.64-5.092-11.64-12.672C30.113,20.993,34.792,15.898,41.753,15.898 M75.695,16.274
	v15.374c-2.621-3.151-5.832-4.922-8.337-7.013c-2.456-2.063-4.322-4.206-5.144-8.361h-3.898V40.42h3.861l0.809-0.002
	c-0.004-2.052-0.809-2.519-0.809-4.162V24.805c0.01,0.01,0.018,0.021,0.026,0.033c2.627,3.064,5.817,4.803,8.312,6.923
	c2.445,2.091,4.327,4.326,5.147,8.659h3.895V16.274H75.695z M176.779,16.274v15.374c-2.622-3.151-5.833-4.922-8.341-7.013
	c-2.453-2.063-4.318-4.206-5.141-8.361h-3.898V40.42h3.86l0.81-0.002c-0.004-2.052-0.81-2.519-0.81-4.162V24.805
	c0.012,0.01,0.019,0.021,0.03,0.033c2.625,3.064,5.816,4.803,8.309,6.923c2.447,2.091,4.327,4.326,5.146,8.659h3.895V16.274H176.779
	z M116.02,37.805c5.674,0,7.496-4.76,7.496-9.174c0-4.409-1.822-9.09-7.496-9.09c-5.671,0-7.494,4.681-7.494,9.09
	C108.525,33.045,110.348,37.805,116.02,37.805 M116.02,15.962c6.962,0,11.639,5.091,11.639,12.669
	c0,7.582-4.677,12.674-11.639,12.674c-6.963,0-11.641-5.092-11.641-12.674C104.378,21.053,109.057,15.962,116.02,15.962
	 M143.131,37.805c5.672,0,7.494-4.76,7.494-9.174c0-4.409-1.822-9.09-7.494-9.09c-5.675,0-7.495,4.681-7.495,9.09
	C135.637,33.045,137.457,37.805,143.131,37.805 M143.131,15.962c6.962,0,11.64,5.091,11.64,12.669
	c0,7.582-4.678,12.674-11.64,12.674c-6.965,0-11.642-5.092-11.642-12.674C131.49,21.053,136.166,15.962,143.131,15.962
	 M84.893,37.329c1.89,2.729,4.556,4.16,8.001,4.16c3.448,0,7.932-1.657,7.932-6.831c0-7.913-11.804-7.813-11.804-11.839
	c0-1.871,1.525-3.012,3.937-3.012c2.179,0,3.492,1.458,4.319,2.443l2.905-2.479c-1.444-1.984-4.038-3.783-7.061-3.783
	c-3.698,0-7.991,1.353-7.991,6.987c0,7.116,11.857,6.829,11.857,11.851c0,1.556-1.252,2.841-4.094,2.841
	c-1.955,0-3.387-0.707-5.097-2.816L84.893,37.329z M202.07,31.208c1.691,0,3.062-1.372,3.062-3.062c0-1.691-1.371-3.062-3.062-3.062
	c-1.689,0-3.062,1.37-3.062,3.062C199.009,29.835,200.381,31.208,202.07,31.208 M256.177,39.742c-2.14,0-2.987,1.107-2.987,1.736
	c0,0.824,0.403,1.605,1.185,1.605c0.655,0,0.625-0.154,1.093-0.154c0.214,0,0.328,0.145,0.328,0.492
	c0,0.445-0.274,1.191-1.657,1.191c-5.406,0-8.796-13.705-9.637-17.139c-0.001-0.004-0.001-0.006-0.003-0.01
	c5.64-1.084,8.61-4.18,8.61-6.788c0-2.809-1.359-4.015-3.236-4.015c-3.016,0-3.771,1.843-3.771,2.613
	c0,0.769,0.529,1.807,1.64,1.807c1.24,0,1.515-1.176,2.2-1.176c0.239,0,0.328,0.162,0.328,0.412c0,0.555-0.351,2.522-6.561,3.122
	c-0.272-1.873-0.456-4.056-0.456-6.688c0-1.481,0.264-3.225,0.702-4.516c0.302-0.881,1.575-1.208,1.575-2.447
	c0-0.809-0.587-1.586-1.531-1.586c-0.945,0-1.113,0.262-1.901,0.262c-3.298,0-5.787-4.117-9.578-4.117
	c-1.842,0-4.021,1.178-4.021,2.633c0,0.663,0.295,1.686,1.293,1.686c1.75,0,0.94-1.254,2.9-1.254c1.959,0,2.952,2.376,2.952,4.283
	s-0.653,4.65-2.914,11.303c-0.013,0.037-0.025,0.078-0.039,0.119c-1.02-0.094-2.031-0.164-3.094-0.164
	c-4.034,0-5.912,1.131-5.912,2.377c0,0.938,0.686,1.18,1.02,1.18c1.358,0,1.541-0.34,2.806-0.34c1.212,0,2.284,0.342,3.812,0.721
	c-1.661,4.275-4.213,9.744-7.735,13.572c-2.242,2.438-4.16,2.756-4.16,4.348c0,0.279,0.254,1.391,1.537,1.391
	c1.128,0,6.263-3.26,11.37-3.26c1.423,0,2.172-0.479,2.172-1.486c0-1.006-0.609-1.684-1.749-1.684c-1.139,0-2.779,0.133-4.35,0.557
	c2.855-4.318,4.792-7.605,6.733-12.73c1.209,0.145,2.636,0.246,4.356,0.266c0.834,4.828,2.235,9.947,3.825,13.008
	c2.403,4.617,5.882,7.945,9.824,7.945c3.73,0,5.918-2.873,5.918-5.99C259.063,41.345,257.879,39.742,256.177,39.742z
	 M236.571,23.488c0.005-0.012,0.009-0.023,0.013-0.035c0.618-1.922,1.884-7.543,2.115-8.464c-0.072,1.187-0.086,2.58,0,5.642
	c0.024,0.914,0.096,1.914,0.203,2.975C238.08,23.589,237.31,23.544,236.571,23.488z M268.232,24c-1.422,0-2.067-1.166-2.067-2.004
	c0-0.543,0.19-0.703,0.19-1.316c0-0.498-0.593-0.868-1.544-0.868c-2.279,0-4.153,3.462-4.153,8.712c0,5.176,2.731,7.438,5.046,7.438
	s2.441-1.738,3.972-1.738c1.13,0,1.553,0.906,1.553,1.717c0,1.85-3.811,4.287-7.032,4.287c-4.611,0-8.736-4.705-8.736-10.873
	c0-7.508,4.087-12.877,10.31-12.877c2.797,0,4.394,1.712,4.394,4.063C270.163,22.89,269.358,24,268.232,24z M286.086,24
	c-1.421,0-2.069-1.166-2.069-2.004c0-0.543,0.193-0.703,0.193-1.316c0-0.498-0.594-0.868-1.547-0.868
	c-2.277,0-4.152,3.462-4.152,8.712c0,5.176,2.732,7.438,5.046,7.438c2.315,0,2.443-1.738,3.97-1.738
	c1.134,0,1.556,0.906,1.556,1.717c0,1.85-3.813,4.287-7.033,4.287c-4.611,0-8.737-4.705-8.737-10.873
	c0-7.508,4.09-12.877,10.311-12.877c2.797,0,4.394,1.712,4.394,4.063C288.016,22.89,287.21,24,286.086,24z M305.178,34.091
	c-1.952,0-1.662,1.754-4.235,1.754c-3.546,0-5.359-3.938-5.064-8.672c7.163,0,10.79-0.143,10.79-3.197
	c0-3.377-2.164-7.395-6.753-7.395c-3.76,0-9.365,2.979-9.365,12.775c0,6.588,4.334,10.857,9.365,10.857
	c2.905,0,6.753-2.578,6.753-4.436C306.668,34.787,306.07,34.091,305.178,34.091z M300.331,19.824c1.662,0,2.661,1.458,2.661,2.121
	c0,1.914-3.393,1.746-6.594,1.746C297.387,20.565,299.387,19.824,300.331,19.824z M435.379,34.091c-1.951,0-1.662,1.754-4.236,1.754
	c-3.544,0-5.36-3.938-5.063-8.672c7.162,0,10.789-0.143,10.789-3.197c0-3.377-2.165-7.395-6.751-7.395
	c-3.763,0-9.369,2.979-9.369,12.775c0,6.588,4.338,10.857,9.369,10.857c2.902,0,6.751-2.578,6.751-4.436
	C436.868,34.787,436.271,34.091,435.379,34.091z M430.533,19.824c1.657,0,2.659,1.458,2.659,2.121c0,1.914-3.391,1.746-6.593,1.746
	C427.589,20.565,429.589,19.824,430.533,19.824z M318.486,19.612c-1.904,0-3.929,1.287-3.929,2.563
	c0,3.395,10.526,4.689,10.526,10.547c0,4.449-3.878,7.547-7.732,7.547c-3.943,0-8.14-3.568-8.14-6.018
	c0-1.367,0.905-2.346,1.923-2.346c2.444,0,2.222,4.223,6.299,4.223c1.367,0,2.651-0.434,2.651-1.857
	c0-2.039-2.088-2.607-4.286-3.697c-2.664-1.318-5.525-3.486-5.525-6.582c0-5.08,5.081-7.366,10.037-7.366
	c3.346,0,4.161,2.714,4.161,3.877c0,1.163-0.447,2.04-1.652,2.04C321.096,22.542,321.157,19.612,318.486,19.612z M336.927,19.612
	c-1.903,0-3.929,1.287-3.929,2.563c0,3.395,10.525,4.689,10.525,10.547c0,4.449-3.876,7.547-7.73,7.547
	c-3.944,0-8.141-3.568-8.141-6.018c0-1.367,0.906-2.346,1.924-2.346c2.444,0,2.222,4.223,6.298,4.223
	c1.368,0,2.652-0.434,2.652-1.857c0-2.039-2.089-2.607-4.287-3.697c-2.664-1.318-5.525-3.486-5.525-6.582
	c0-5.08,5.08-7.366,10.037-7.366c3.347,0,4.162,2.714,4.162,3.877c0,1.163-0.448,2.04-1.653,2.04
	C339.536,22.542,339.598,19.612,336.927,19.612z M356.079,16.561c-7.174,0-10.347,7.335-10.347,12.062
	c0,7.996,4.383,12.139,9.588,12.139c7.933,0,10.182-7.273,10.182-11.836C365.502,24.027,363.516,16.561,356.079,16.561z
	 M355.847,35.835c-2.161,0-5.652-1.721-5.652-7.076c0-2.473,0.953-8.596,5.824-8.596c3.405,0,5.684,3.105,5.684,8.66
	S357.938,35.835,355.847,35.835z M378.964,16.257c2.99,0,5.693,1.474,5.693,4.731c0,2.508-2.249,3.395-3.65,3.395
	c-1.556,0-2.915-0.775-2.915-2.029c0-1.402,1.081-1.685,1.635-1.685c0.555,0,1.194,0.578,1.606,0.578
	c0.364,0,0.433-0.227,0.433-0.54c0-0.455-1.127-1.505-2.8-1.505c-2.461,0-3.533,1.215-4.031,3.582
	c-0.364,1.727-0.617,3.918-0.617,6.352c0,2.137,0.155,5.418,1.353,6.611c0.87,0.873,2.369,0.51,2.369,2.205
	c0,0.871-0.823,1.332-1.37,1.332c-0.55,0-2.548-0.43-4.193-0.43c-2.822,0-4.526,1.252-6.073,1.252c-0.755,0-1.284-0.627-1.284-1.32
	c0-1.432,2.486-1.828,3.577-3.088c1.447-1.676,1.721-10.188,1.271-12.059c-0.479-2.008-3.154-2.988-3.154-4.36
	c0-1.18,1.098-1.569,1.737-1.569c0.717,0,2.005,1.001,3.533,1.001S375.421,16.257,378.964,16.257z M395.978,17.776
	c0.833,0,1.2,0.754,1.2,1.475c0,0.891-1.19,1.398-1.784,2.856c-0.936,2.309-1.467,12.27,0.789,13.854
	c0.882,0.617,2.087,0.502,2.087,1.902c0,1.09-0.738,1.436-1.503,1.436c-0.766,0-2.41-0.449-3.681-0.449
	c-3.346,0-5.03,1.281-6.354,1.281c-0.901,0-1.382-0.664-1.382-1.291c0-1.428,2.311-1.889,3.325-2.902
	c1.591-1.592,1.691-7.822,1.691-9.189c0-5.96-3.635-5.334-3.635-7.223c0-1.108,0.949-1.463,1.567-1.463
	c0.617,0,1.759,0.664,4.058,0.664C394.653,18.725,394.767,17.776,395.978,17.776z M398.396,0c-1.175,0-3.447,5.369-4.174,7.308
	c-0.118-0.685-0.504-2.113-0.648-2.778c-0.143-0.664-0.243-1.297-0.898-1.297c-0.522,0-0.692,0.404-0.857,1.336
	c-0.163,0.907-0.453,2.082-0.69,3.17c-0.328-0.627-1.694-3.037-2.566-3.037c-0.332,0-0.742,0.154-0.742,0.723
	c0,0.669,0.991,1.883,1.209,6.58c0.112,2.41-0.21,3.772,1.111,3.772c1.594,0,2.281-0.146,3.688-0.477
	c1.213-0.285,2.172-0.407,2.308-1.711c0.224-2.186,0.32-3.878,1.009-6.648c0.763-3.07,1.899-5.53,1.899-6.254
	C399.042,0.396,398.983,0,398.396,0z M394.521,11.973c-0.215,0.523-1.99,0.755-3.28,0.755c-0.498,0-0.683-0.405-0.683-0.775
	c-0.094-1.198-0.05-0.701-0.282-2.386c0.424,0.937,0.687,1.316,1.464,1.316c0.73,0,0.938-1.154,1.055-1.96
	c0.292,1.055,0.578,1.712,1.135,1.712c0.558,0,1.007-1.222,1.108-1.472C394.849,10.209,394.79,11.318,394.521,11.973z
	 M405.548,16.759c2.036,0,4.839,0.971,7.17,0.971c2.136,0,2.133-0.697,4.035-0.697c1.369,0,1.725,0.903,1.725,1.751
	c0,1.514-2.282,2.505-3.117,3.802c-1.334,2.07-8.049,10.785-8.869,12.428c3.327,0.764,9.822,5.787,12.055,5.787
	c0.722,0,1.464-0.514,1.464-0.957c0-0.238-0.372-0.412-0.848-0.412c-0.384,0-0.465,0.098-0.932,0.098
	c-0.465,0-1.244-0.424-1.244-1.191c0-0.891,1.081-1.996,2.681-1.996c1.499,0,2.847,1.105,2.847,3.199
	c0,1.771-1.905,4.352-5.036,4.352c-4.612,0-4.86-3.682-14.369-3.682c-2.08,0-3.075-1.461-3.075-2.926
	c0-2.469,8.836-12.588,11.11-15.969c-1.41-0.109-3.325-1.327-4.693-1.327c-1.369,0-1.586,2.737-3.694,2.737
	c-1.203,0-1.602-1.287-1.602-2.081C401.154,19.852,402.017,16.759,405.548,16.759z"/>
</svg>
